<?xml version="1.0" encoding="utf-8"?>
<svg xmlns="http://www.w3.org/2000/svg"
	xmlns:xlink="http://www.w3.org/1999/xlink"
	width="8px" height="14px" viewBox="0 0 8 14">
<path fillRule="evenodd" d="M 8 1.16C 8 1.04 7.94 0.93 7.86 0.84 7.86 0.84 7.18 0.14 7.18 0.14 7.09 0.06 6.97-0 6.86-0 6.75-0 6.63 0.06 6.54 0.14 6.54 0.14 0.14 6.68 0.14 6.68 0.05 6.76-0 6.89-0 7-0 7.11 0.05 7.24 0.14 7.32 0.14 7.32 6.54 13.86 6.54 13.86 6.63 13.94 6.75 14 6.86 14 6.97 14 7.09 13.94 7.18 13.86 7.18 13.86 7.86 13.16 7.86 13.16 7.94 13.07 8 12.95 8 12.84 8 12.72 7.94 12.6 7.86 12.51 7.86 12.51 2.46 7 2.46 7 2.46 7 7.86 1.49 7.86 1.49 7.94 1.4 8 1.28 8 1.16Z" fill="rgb(221,221,221)"/></svg>