<?xml version="1.0" encoding="utf-8"?>
<svg xmlns="http://www.w3.org/2000/svg"
	xmlns:xlink="http://www.w3.org/1999/xlink"
	width="8px" height="14px" viewBox="0 0 8 14">
<path fillRule="evenodd" d="M-0 12.84C-0 12.96 0.05 13.07 0.14 13.16 0.14 13.16 0.82 13.86 0.82 13.86 0.91 13.94 1.03 14 1.14 14 1.25 14 1.37 13.94 1.46 13.86 1.46 13.86 7.86 7.32 7.86 7.32 7.94 7.24 8 7.11 8 7 8 6.89 7.94 6.76 7.86 6.68 7.86 6.68 1.46 0.14 1.46 0.14 1.37 0.06 1.25-0 1.14-0 1.03-0 0.91 0.06 0.82 0.14 0.82 0.14 0.14 0.84 0.14 0.84 0.05 0.93-0 1.05-0 1.16-0 1.28 0.05 1.4 0.14 1.49 0.14 1.49 5.54 7 5.54 7 5.54 7 0.14 12.51 0.14 12.51 0.05 12.6-0 12.72-0 12.84Z" fill="rgb(221,221,221)"/></svg>