<?xml version="1.0" encoding="utf-8"?>
<svg xmlns="http://www.w3.org/2000/svg"
	xmlns:xlink="http://www.w3.org/1999/xlink"
	width="53px" height="40px" viewBox="0 0 53 40">
<path fillRule="evenodd" d="M 16.6 32.72C 16.97 32.35 16.97 31.77 16.6 31.39 16.6 31.39 5.25 20 5.25 20 5.25 20 16.6 8.61 16.6 8.61 16.97 8.23 16.97 7.65 16.6 7.27 16.6 7.27 15.16 5.83 15.16 5.83 14.78 5.45 14.2 5.45 13.83 5.83 13.83 5.83 0.38 19.33 0.38 19.33-0 19.71-0 20.29 0.38 20.67 0.38 20.67 13.83 34.17 13.83 34.17 14.2 34.55 14.78 34.55 15.16 34.17 15.16 34.17 16.6 32.72 16.6 32.72ZM 33.66 1.8C 33.8 1.3 33.51 0.78 33.02 0.64 33.02 0.64 31.23 0.14 31.23 0.14 30.77-0 30.25 0.29 30.11 0.78 30.11 0.78 19.34 38.2 19.34 38.2 19.2 38.69 19.49 39.22 19.98 39.36 19.98 39.36 21.77 39.85 21.77 39.85 22.23 40 22.75 39.71 22.89 39.22 22.89 39.22 33.66 1.8 33.66 1.8ZM 52.62 20.67C 53 20.29 53 19.71 52.62 19.33 52.62 19.33 39.17 5.83 39.17 5.83 38.8 5.45 38.22 5.45 37.84 5.83 37.84 5.83 36.4 7.27 36.4 7.27 36.03 7.65 36.03 8.23 36.4 8.61 36.4 8.61 47.75 20 47.75 20 47.75 20 36.4 31.39 36.4 31.39 36.03 31.77 36.03 32.35 36.4 32.72 36.4 32.72 37.84 34.17 37.84 34.17 38.22 34.55 38.8 34.55 39.17 34.17 39.17 34.17 52.62 20.67 52.62 20.67Z" fill="rgb(191,47,27)"/></svg>