<?xml version="1.0" encoding="utf-8"?>
<svg xmlns="http://www.w3.org/2000/svg"
	xmlns:xlink="http://www.w3.org/1999/xlink"
	width="15px" height="11px" viewBox="0 0 15 11">
<path fillRule="evenodd" d="M 13.93 9.75C 13.93 9.88 13.8 10 13.66 10 13.66 10 1.34 10 1.34 10 1.2 10 1.07 9.88 1.07 9.75 1.07 9.75 1.07 3.75 1.07 3.75 1.25 3.94 1.44 4.11 1.65 4.27 2.85 5.12 4.05 6 5.21 6.91 5.84 7.4 6.62 8 7.49 8 7.49 8 7.5 8 7.5 8 7.5 8 7.51 8 7.51 8 8.38 8 9.16 7.4 9.79 6.91 10.95 6 12.15 5.12 13.35 4.27 13.56 4.11 13.75 3.94 13.93 3.75 13.93 3.75 13.93 9.75 13.93 9.75ZM 13.93 1.54C 13.93 2.2 13.24 3.07 12.7 3.47 11.58 4.29 10.45 5.12 9.34 5.94 8.9 6.28 8.09 7 7.51 7 7.51 7 7.5 7 7.5 7 7.5 7 7.49 7 7.49 7 6.91 7 6.1 6.28 5.66 5.94 4.55 5.12 3.42 4.29 2.3 3.47 1.55 2.91 1.07 2.14 1.07 1.25 1.07 1.12 1.2 1 1.34 1 1.34 1 13.66 1 13.66 1 13.98 1 13.93 1.34 13.93 1.54ZM 15 1.25C 15 0.56 14.4-0 13.66-0 13.66-0 1.34-0 1.34-0 0.6-0-0 0.56-0 1.25-0 1.25-0 9.75-0 9.75-0 10.44 0.6 11 1.34 11 1.34 11 13.66 11 13.66 11 14.4 11 15 10.44 15 9.75 15 9.75 15 1.25 15 1.25Z" fill="rgb(85,85,85)"/></svg>