<?xml version="1.0" encoding="utf-8"?>
<svg xmlns="http://www.w3.org/2000/svg"
	xmlns:xlink="http://www.w3.org/1999/xlink"
	width="43px" height="40px" viewBox="0 0 43 40">
<path fillRule="evenodd" d="M 18.73 11.22C 20.57 15 22.15 19.04 23.49 22.99 23 23.02 22.51 23.05 22.02 23.05 19.46 23.05 16.9 22.97 14.34 22.94 14.34 22.94 18.73 11.22 18.73 11.22ZM-0 40C 1.63 40 3.23 39.92 4.86 39.64 5.22 39.58 5.74 39.43 6.1 39.43 9.1 39.43 12.12 39.95 15.12 39.95 15.14 39.71 15.17 39.48 15.17 39.24 15.17 38.72 15.17 38.23 15.14 37.73 13.67 37.53 9.87 37.45 9.87 35.44 9.87 34.45 12.48 27.63 13.15 26.12 13.15 26.12 24.78 26.17 24.78 26.17 25.2 27.24 28.53 34.97 28.53 35.91 28.53 36.87 27.16 37.06 26.46 37.21 26.46 37.21 23.08 37.94 23.08 37.94 23 38.62 22.97 39.3 22.97 39.97 26.36 39.87 29.74 39.58 33.13 39.58 36.41 39.58 39.69 40 42.97 40 42.97 39.77 43 39.56 43 39.32 43 38.83 42.92 38.33 42.84 37.84 41.63 37.37 39.25 37.21 38.4 36.54 38.04 36.25 37.68 35.47 37.5 35.05 36.2 32.4 35.3 29.61 34.14 26.9 32.17 22.32 30.39 17.66 28.45 13.05 28.45 13.05 23.15 0.55 23.15 0.55 23.08 0.36 22.97 0.18 22.87-0 22.87-0 21.5-0 21.5-0 21.5-0 19.56-0 19.56-0 19.56-0 12.33 18.85 12.33 18.85 12.33 18.85 6.2 34.9 6.2 34.9 5.12 37.71 2.48 37.19 0.05 37.94 0.05 37.94-0 40-0 40Z" fill="rgb(255,255,255)"/></svg>