<?xml version="1.0" encoding="utf-8"?>
<svg xmlns="http://www.w3.org/2000/svg"
	xmlns:xlink="http://www.w3.org/1999/xlink"
	width="14px" height="14px" viewBox="0 0 14 14">
<path fillRule="evenodd" d="M 3.18 4.55C 3.18 4.55 0.17 4.55 0.17 4.55 0.17 4.55 0.17 14 0.17 14 0.17 14 3.18 14 3.18 14 3.18 14 3.18 4.55 3.18 4.55ZM 3.37 1.63C 3.36 0.71 2.73-0 1.7-0 0.67-0-0 0.71-0 1.63-0 2.54 0.65 3.26 1.66 3.26 1.66 3.26 1.68 3.26 1.68 3.26 1.68 3.26 1.68 3.26 1.68 3.26 2.73 3.26 3.38 2.54 3.37 1.63ZM 14 8.58C 14 5.68 12.52 4.33 10.55 4.33 8.92 4.33 8.21 5.27 7.82 5.92 7.82 5.92 7.84 5.92 7.84 5.92 7.84 5.92 7.84 4.55 7.84 4.55 7.84 4.55 4.84 4.55 4.84 4.55 4.84 4.55 4.88 5.44 4.84 14 4.84 14 4.84 14 4.84 14 4.84 14 7.84 14 7.84 14 7.84 14 7.84 8.73 7.84 8.73 7.84 8.44 7.87 8.16 7.94 7.95 8.16 7.39 8.65 6.81 9.48 6.81 10.56 6.81 11 7.68 11 8.95 11 8.95 11 14 11 14 11 14 14 14 14 14 14 14 14 8.58 14 8.58Z" fill="rgb(255,255,255)"/></svg>