<?xml version="1.0" encoding="utf-8"?>
<svg xmlns="http://www.w3.org/2000/svg"
	xmlns:xlink="http://www.w3.org/1999/xlink"
	width="12px" height="20px" viewBox="0 0 12 20">
<path fillRule="evenodd" d="M 7.25 18C 7.25 18.69 6.69 19.25 6 19.25 5.31 19.25 4.75 18.69 4.75 18 4.75 17.31 5.31 16.75 6 16.75 6.69 16.75 7.25 17.31 7.25 18ZM 10.5 15.5C 10.5 15.77 10.27 16 10 16 10 16 2 16 2 16 1.73 16 1.5 15.77 1.5 15.5 1.5 15.5 1.5 4.5 1.5 4.5 1.5 4.23 1.73 4 2 4 2 4 10 4 10 4 10.27 4 10.5 4.23 10.5 4.5 10.5 4.5 10.5 15.5 10.5 15.5ZM 7.5 2.25C 7.5 2.39 7.39 2.5 7.25 2.5 7.25 2.5 4.75 2.5 4.75 2.5 4.61 2.5 4.5 2.39 4.5 2.25 4.5 2.11 4.61 2 4.75 2 4.75 2 7.25 2 7.25 2 7.39 2 7.5 2.11 7.5 2.25ZM 12 2C 12 0.91 11.09-0 10-0 10-0 2-0 2-0 0.91-0-0 0.91-0 2-0 2-0 18-0 18-0 19.09 0.91 20 2 20 2 20 10 20 10 20 11.09 20 12 19.09 12 18 12 18 12 2 12 2Z" fill="rgb(85,85,85)"/></svg>