<?xml version="1.0" encoding="utf-8"?>
<svg xmlns="http://www.w3.org/2000/svg"
	xmlns:xlink="http://www.w3.org/1999/xlink"
	width="12px" height="17px" viewBox="0 0 12 17">
<path fillRule="evenodd" d="M 9 5.67C 9 7.23 7.65 8.5 6 8.5 4.35 8.5 3 7.23 3 5.67 3 4.11 4.35 2.83 6 2.83 7.65 2.83 9 4.11 9 5.67ZM 12 5.67C 12 2.53 9.32-0 6-0 2.68-0-0 2.53-0 5.67-0 6.34 0.08 7.04 0.39 7.65 0.39 7.65 4.66 16.21 4.66 16.21 4.9 16.7 5.44 17 6 17 6.56 17 7.1 16.7 7.35 16.21 7.35 16.21 11.61 7.65 11.61 7.65 11.92 7.04 12 6.34 12 5.67Z" fill="rgb(85,85,85)"/></svg>