<?xml version="1.0" encoding="utf-8"?>
<svg xmlns="http://www.w3.org/2000/svg"
	xmlns:xlink="http://www.w3.org/1999/xlink"
	width="48px" height="49px" viewBox="0 0 48 49">
<path fillRule="evenodd" d="M 23.99 0.87C 10.74 0.87-0 11.61-0 24.86-0 38.12 10.74 48.86 23.99 48.86 37.25 48.86 47.99 38.12 47.99 24.86 47.99 11.61 37.25 0.87 23.99 0.87ZM 23.99 4.29C 27.48 4.29 30.77 5.18 33.66 6.7 33.66 6.7 28.47 11.9 28.47 11.9 27.05 11.42 25.57 11.15 23.99 11.15 22.44 11.15 20.94 11.42 19.52 11.9 19.52 11.9 14.33 6.7 14.33 6.7 17.22 5.18 20.51 4.29 23.99 4.29ZM 5.84 34.53C 4.31 31.64 3.43 28.34 3.43 24.86 3.43 21.38 4.31 18.09 5.84 15.19 5.84 15.19 11.03 20.39 11.03 20.39 10.55 21.81 10.28 23.28 10.28 24.86 10.28 26.41 10.55 27.91 11.03 29.33 11.03 29.33 5.84 34.53 5.84 34.53ZM 23.99 45.43C 20.51 45.43 17.22 44.54 14.33 43.02 14.33 43.02 19.52 37.82 19.52 37.82 20.94 38.3 22.44 38.57 23.99 38.57 25.57 38.57 27.05 38.3 28.47 37.82 28.47 37.82 33.66 43.02 33.66 43.02 30.77 44.54 27.48 45.43 23.99 45.43ZM 23.99 35.14C 18.32 35.14 13.71 30.54 13.71 24.86 13.71 19.18 18.32 14.58 23.99 14.58 29.67 14.58 34.28 19.18 34.28 24.86 34.28 30.54 29.67 35.14 23.99 35.14ZM 36.96 29.33C 37.44 27.91 37.7 26.41 37.7 24.86 37.7 23.31 37.44 21.81 36.96 20.39 36.96 20.39 42.15 15.19 42.15 15.19 43.68 18.09 44.56 21.38 44.56 24.86 44.56 28.34 43.68 31.64 42.15 34.53 42.15 34.53 36.96 29.33 36.96 29.33Z" fill="rgb(191,47,27)"/></svg>