<?xml version="1.0" encoding="utf-8"?>
<svg xmlns="http://www.w3.org/2000/svg"
	xmlns:xlink="http://www.w3.org/1999/xlink"
	width="16px" height="12px" viewBox="0 0 16 12">
<path fillRule="evenodd" d="M 16 1.42C 15.41 1.66 14.77 1.83 14.11 1.89 14.79 1.52 15.31 0.93 15.55 0.22 14.92 0.57 14.21 0.82 13.47 0.96 12.87 0.37 12.02-0 11.08-0 9.26-0 7.8 1.36 7.8 3.03 7.8 3.26 7.83 3.5 7.88 3.72 5.16 3.59 2.73 2.39 1.12 0.55 0.83 1 0.67 1.52 0.67 2.08 0.67 3.13 1.25 4.06 2.13 4.6 1.59 4.58 1.09 4.44 0.65 4.22 0.65 4.23 0.65 4.25 0.65 4.26 0.65 5.73 1.78 6.95 3.28 7.23 3.01 7.29 2.71 7.33 2.42 7.33 2.2 7.33 2 7.31 1.8 7.28 2.21 8.48 3.42 9.36 4.86 9.38 3.74 10.2 2.32 10.68 0.79 10.68 0.52 10.68 0.26 10.67-0 10.64 1.45 11.5 3.18 12 5.04 12 11.07 12 14.37 7.39 14.37 3.38 14.37 3.25 14.37 3.12 14.36 2.99 14.99 2.56 15.55 2.02 16 1.42Z" fill="rgb(255,255,255)"/></svg>