<?xml version="1.0" encoding="utf-8"?>
<svg xmlns="http://www.w3.org/2000/svg"
	xmlns:xlink="http://www.w3.org/1999/xlink"
	width="9px" height="16px" viewBox="0 0 9 16">
<path fillRule="evenodd" d="M 8.1 0C 8.1 0 6.08-0 6.08-0 3.81-0 2.35 1.55 2.35 3.94 2.35 3.94 2.35 5.75 2.35 5.75 2.35 5.75 0.32 5.75 0.32 5.75 0.14 5.75-0 5.9-0 6.08-0 6.08-0 8.71-0 8.71-0 8.89 0.14 9.04 0.32 9.04 0.32 9.04 2.35 9.04 2.35 9.04 2.35 9.04 2.35 15.67 2.35 15.67 2.35 15.85 2.49 16 2.66 16 2.66 16 5.31 16 5.31 16 5.49 16 5.63 15.85 5.63 15.67 5.63 15.67 5.63 9.04 5.63 9.04 5.63 9.04 8 9.04 8 9.04 8.18 9.04 8.32 8.89 8.32 8.71 8.32 8.71 8.32 6.08 8.32 6.08 8.32 5.99 8.29 5.91 8.23 5.85 8.17 5.79 8.09 5.75 8 5.75 8 5.75 5.63 5.75 5.63 5.75 5.63 5.75 5.63 4.21 5.63 4.21 5.63 3.47 5.8 3.1 6.74 3.1 6.74 3.1 8.1 3.1 8.1 3.1 8.27 3.1 8.41 2.95 8.41 2.77 8.41 2.77 8.41 0.33 8.41 0.33 8.41 0.15 8.27 0 8.1 0Z" fill="rgb(255,255,255)"/></svg>