<?xml version="1.0" encoding="utf-8"?>
<svg xmlns="http://www.w3.org/2000/svg"
	xmlns:xlink="http://www.w3.org/1999/xlink"
	width="17px" height="16px" viewBox="0 0 17 16">
<path fillRule="evenodd" d="M 1.58 3.78C 1.58 5.07 2.03 5.99 2.91 6.54 3.63 6.99 4.46 7.05 4.89 7.05 5 7.05 5.08 7.05 5.14 7.05 5.14 7.05 5 7.91 5.67 8.76 5.67 8.76 5.64 8.76 5.64 8.76 4.49 8.76 0.74 9 0.74 11.97 0.74 15 4.18 15.16 4.87 15.16 4.93 15.16 4.96 15.16 4.96 15.16 4.97 15.16 5.02 15.16 5.1 15.16 5.54 15.16 6.69 15.1 7.75 14.6 9.13 13.96 9.84 12.83 9.84 11.26 9.84 9.74 8.77 8.83 7.99 8.17 7.51 7.77 7.1 7.42 7.1 7.08 7.1 6.74 7.4 6.48 7.78 6.15 8.4 5.62 8.98 4.87 8.98 3.44 8.98 2.18 8.81 1.34 7.77 0.81 7.88 0.75 8.26 0.71 8.45 0.69 9.01 0.61 9.84 0.53 9.84 0.09 9.84 0.09 9.84-0 9.84-0 9.84-0 5.73-0 5.73-0 5.69 0 1.58 0.15 1.58 3.78ZM 8.21 11.54C 8.29 12.75 7.21 13.65 5.6 13.76 3.96 13.88 2.62 13.16 2.54 11.95 2.5 11.37 2.77 10.8 3.28 10.35 3.81 9.89 4.53 9.61 5.32 9.55 5.41 9.54 5.5 9.54 5.59 9.54 7.11 9.54 8.13 10.4 8.21 11.54ZM 7.14 2.95C 7.54 4.32 6.93 5.75 5.96 6.01 5.85 6.04 5.74 6.05 5.62 6.05 4.73 6.05 3.85 5.19 3.53 3.99 3.35 3.32 3.36 2.74 3.57 2.17 3.77 1.62 4.14 1.25 4.61 1.12 4.72 1.09 4.83 1.07 4.95 1.07 6.02 1.07 6.71 1.5 7.14 2.95ZM 14.05 5.93C 14.05 5.93 14.05 3.34 14.05 3.34 14.05 3.34 12.35 3.34 12.35 3.34 12.35 3.34 12.35 5.93 12.35 5.93 12.35 5.93 9.68 5.93 9.68 5.93 9.68 5.93 9.68 7.56 9.68 7.56 9.68 7.56 12.35 7.56 12.35 7.56 12.35 7.56 12.35 10.15 12.35 10.15 12.35 10.15 14.05 10.15 14.05 10.15 14.05 10.15 14.05 7.56 14.05 7.56 14.05 7.56 16.72 7.56 16.72 7.56 16.72 7.56 16.72 5.93 16.72 5.93 16.72 5.93 14.05 5.93 14.05 5.93Z" fill="rgb(255,255,255)"/></svg>