<?xml version="1.0" encoding="utf-8"?>
<svg xmlns="http://www.w3.org/2000/svg"
	xmlns:xlink="http://www.w3.org/1999/xlink"
	width="17px" height="14px" viewBox="0 0 17 14">
<path fillRule="evenodd" d="M 15.97 1.07C 15.33 1.44 14.63 1.71 13.89 1.85 13.29 1.23 12.44 0.84 11.49 0.84 9.68 0.84 8.21 2.27 8.21 4.03 8.21 4.28 8.24 4.52 8.3 4.76 5.57 4.62 3.15 3.35 1.54 1.42 1.25 1.9 1.09 2.44 1.09 3.03 1.09 4.13 1.67 5.11 2.55 5.68 2.01 5.66 1.51 5.52 1.07 5.28 1.07 5.28 1.07 5.32 1.07 5.32 1.07 6.87 2.2 8.16 3.7 8.45 3.42 8.52 3.13 8.56 2.83 8.56 2.62 8.56 2.42 8.54 2.22 8.5 2.63 9.77 3.84 10.69 5.28 10.72 4.16 11.57 2.74 12.08 1.21 12.08 0.94 12.08 0.68 12.07 0.42 12.04 1.88 12.94 3.6 13.47 5.45 13.47 11.48 13.47 14.78 8.61 14.78 4.4 14.78 4.4 14.77 3.98 14.77 3.98 15.41 3.54 15.97 2.98 16.41 2.34 15.82 2.59 15.19 2.76 14.53 2.84 15.2 2.44 15.72 1.82 15.97 1.07Z" fill="rgb(255,255,255)"/></svg>